<svg width="48" height="48" viewBox="0 0 48 48" fill="none" xmlns="http://www.w3.org/2000/svg">
<g clip-path="url(#clip0_1_1410)">
<path d="M47.199 36.772L29.1612 5.52961C28.1582 3.79238 26.3617 2.75509 24.3555 2.75509C22.3494 2.75509 20.5528 3.79238 19.5498 5.52961L1.51209 36.7719C0.508992 38.5093 0.508992 40.5837 1.51209 42.3211C2.51518 44.0584 4.31159 45.0956 6.31778 45.0956H42.3933C44.3994 45.0956 46.1959 44.0583 47.199 42.3212C48.2021 40.5837 48.2021 38.5093 47.199 36.772ZM44.8046 40.9388C44.3013 41.8105 43.3999 42.3309 42.3933 42.3309H6.31778C5.31109 42.3309 4.40966 41.8105 3.90641 40.9388C3.40316 40.067 3.40316 39.0262 3.90641 38.1545L21.9443 6.91209C22.4476 6.04033 23.349 5.51994 24.3556 5.51994C25.3621 5.51994 26.2636 6.04033 26.7669 6.91209L44.8047 38.1545C45.3079 39.0262 45.3079 40.067 44.8046 40.9388Z" fill="#D99F2E"/>
<path d="M25.7378 16.5526H22.973V30.3766H25.7378V16.5526Z" fill="#D99F2E"/>
<path d="M24.3556 33.1415C23.3392 33.1415 22.5123 33.9684 22.5123 34.9847C22.5123 36.0011 23.3392 36.828 24.3556 36.828C25.3718 36.828 26.1988 36.0011 26.1988 34.9847C26.1988 33.9684 25.3719 33.1415 24.3556 33.1415Z" fill="#D99F2E"/>
</g>
<defs>
<clipPath id="clip0_1_1410">
<rect width="47.1916" height="47.1916" fill="white" transform="translate(0.759766 0.329613)"/>
</clipPath>
</defs>
</svg>
