<svg width="153" height="24" viewBox="0 0 153 24" fill="none" xmlns="http://www.w3.org/2000/svg">
<path d="M22.2876 12.1473C22.2876 14.6425 21.8147 16.7652 20.8688 18.5155C19.9303 20.2658 18.6492 21.6028 17.0255 22.5263C15.4093 23.4425 13.5919 23.9005 11.5735 23.9005C9.54012 23.9005 7.71532 23.4387 6.09907 22.5152C4.48282 21.5916 3.20546 20.2547 2.26699 18.5043C1.32852 16.754 0.859286 14.635 0.859286 12.1473C0.859286 9.6522 1.32852 7.52947 2.26699 5.77915C3.20546 4.02883 4.48282 2.69561 6.09907 1.77949C7.71532 0.855916 9.54012 0.39413 11.5735 0.39413C13.5919 0.39413 15.4093 0.855916 17.0255 1.77949C18.6492 2.69561 19.9303 4.02883 20.8688 5.77915C21.8147 7.52947 22.2876 9.6522 22.2876 12.1473ZM17.383 12.1473C17.383 10.5311 17.141 9.16807 16.6568 8.05829C16.1802 6.94851 15.5061 6.10687 14.6347 5.53336C13.7632 4.95985 12.7428 4.6731 11.5735 4.6731C10.4041 4.6731 9.38371 4.95985 8.51227 5.53336C7.64084 6.10687 6.96305 6.94851 6.47892 8.05829C6.00224 9.16807 5.7639 10.5311 5.7639 12.1473C5.7639 13.7636 6.00224 15.1266 6.47892 16.2364C6.96305 17.3461 7.64084 18.1878 8.51227 18.7613C9.38371 19.3348 10.4041 19.6216 11.5735 19.6216C12.7428 19.6216 13.7632 19.3348 14.6347 18.7613C15.5061 18.1878 16.1802 17.3461 16.6568 16.2364C17.141 15.1266 17.383 13.7636 17.383 12.1473Z" fill="#0025F8"/>
<path d="M45.565 7.2874C45.4756 6.38618 45.0921 5.68605 44.4143 5.18702C43.7365 4.688 42.8166 4.43848 41.6547 4.43848C40.8652 4.43848 40.1986 4.5502 39.6549 4.77365C39.1112 4.98965 38.6941 5.2913 38.4036 5.6786C38.1206 6.06591 37.9791 6.50535 37.9791 6.99693C37.9642 7.40658 38.0498 7.76409 38.236 8.06946C38.4297 8.37484 38.6941 8.63925 39.0293 8.86269C39.3644 9.07869 39.7517 9.26862 40.1912 9.43247C40.6306 9.58889 41.0998 9.72295 41.5989 9.83468L43.6546 10.3263C44.6526 10.5497 45.5687 10.8476 46.4029 11.22C47.2371 11.5924 47.9596 12.0505 48.5704 12.5942C49.1811 13.1379 49.6541 13.7785 49.9892 14.5158C50.3318 15.2532 50.5069 16.0986 50.5143 17.0519C50.5069 18.4522 50.1494 19.6662 49.4418 20.6941C48.7417 21.7145 47.7287 22.5077 46.4029 23.0738C45.0846 23.6324 43.4944 23.9117 41.6324 23.9117C39.7852 23.9117 38.1764 23.6287 36.806 23.0626C35.443 22.4966 34.3779 21.6586 33.6107 20.5489C32.851 19.4316 32.4525 18.05 32.4153 16.404H37.0965C37.1486 17.1711 37.3683 17.8117 37.7556 18.3256C38.1504 18.8321 38.6755 19.2156 39.3309 19.4763C39.9938 19.7296 40.7423 19.8562 41.5765 19.8562C42.3958 19.8562 43.1071 19.737 43.7104 19.4987C44.3212 19.2603 44.7941 18.9289 45.1293 18.5043C45.4645 18.0798 45.6321 17.5919 45.6321 17.0408C45.6321 16.5268 45.4794 16.0949 45.174 15.7448C44.8761 15.3947 44.4366 15.0968 43.8557 14.851C43.2822 14.6052 42.5783 14.3818 41.7441 14.1807L39.2527 13.555C37.3236 13.0858 35.8005 12.3522 34.6833 11.3541C33.566 10.356 33.0111 9.01165 33.0186 7.32092C33.0111 5.93556 33.3798 4.72524 34.1246 3.68994C34.8769 2.65465 35.9085 1.84652 37.2194 1.26557C38.5302 0.684608 40.0199 0.39413 41.6882 0.39413C43.3864 0.39413 44.8686 0.684608 46.1348 1.26557C47.4084 1.84652 48.399 2.65465 49.1066 3.68994C49.8142 4.72524 50.1792 5.92439 50.2015 7.2874H45.565Z" fill="#827F26"/>
<path d="M73.4621 7.2874C73.3727 6.38618 72.9892 5.68605 72.3114 5.18702C71.6336 4.688 70.7137 4.43848 69.5518 4.43848C68.7623 4.43848 68.0957 4.5502 67.552 4.77365C67.0083 4.98965 66.5912 5.2913 66.3007 5.6786C66.0177 6.06591 65.8762 6.50535 65.8762 6.99693C65.8613 7.40658 65.9469 7.76409 66.1331 8.06946C66.3268 8.37484 66.5912 8.63925 66.9263 8.86269C67.2615 9.07869 67.6488 9.26862 68.0883 9.43247C68.5277 9.58889 68.9969 9.72295 69.496 9.83468L71.5517 10.3263C72.5497 10.5497 73.4658 10.8476 74.3 11.22C75.1342 11.5924 75.8567 12.0505 76.4674 12.5942C77.0782 13.1379 77.5512 13.7785 77.8863 14.5158C78.2289 15.2532 78.404 16.0986 78.4114 17.0519C78.404 18.4522 78.0465 19.6662 77.3389 20.6941C76.6388 21.7145 75.6258 22.5077 74.3 23.0738C72.9817 23.6324 71.3915 23.9117 69.5295 23.9117C67.6823 23.9117 66.0735 23.6287 64.7031 23.0626C63.3401 22.4966 62.275 21.6586 61.5078 20.5489C60.7481 19.4316 60.3496 18.05 60.3124 16.404H64.9935C65.0457 17.1711 65.2654 17.8117 65.6527 18.3256C66.0475 18.8321 66.5726 19.2156 67.228 19.4763C67.8909 19.7296 68.6394 19.8562 69.4736 19.8562C70.2929 19.8562 71.0042 19.737 71.6075 19.4987C72.2183 19.2603 72.6912 18.9289 73.0264 18.5043C73.3616 18.0798 73.5291 17.5919 73.5291 17.0408C73.5291 16.5268 73.3765 16.0949 73.0711 15.7448C72.7732 15.3947 72.3337 15.0968 71.7528 14.851C71.1792 14.6052 70.4754 14.3818 69.6412 14.1807L67.1498 13.555C65.2207 13.0858 63.6976 12.3522 62.5803 11.3541C61.4631 10.356 60.9082 9.01165 60.9157 7.32092C60.9082 5.93556 61.2769 4.72524 62.0217 3.68994C62.774 2.65465 63.8056 1.84652 65.1164 1.26557C66.4273 0.684608 67.917 0.39413 69.5853 0.39413C71.2835 0.39413 72.7657 0.684608 74.0319 1.26557C75.3055 1.84652 76.2961 2.65465 77.0037 3.68994C77.7113 4.72524 78.0762 5.92439 78.0986 7.2874H73.4621Z" fill="#501982"/>
<path d="M88.9468 23.5877V0.706953H97.974C99.7094 0.706953 101.188 1.0384 102.409 1.70128C103.631 2.35672 104.562 3.26912 105.202 4.43848C105.85 5.6004 106.174 6.94106 106.174 8.46049C106.174 9.97992 105.847 11.3206 105.191 12.4825C104.536 13.6444 103.586 14.5494 102.342 15.1974C101.106 15.8453 99.6089 16.1693 97.8511 16.1693H92.0974V12.2926H97.0691C98.0001 12.2926 98.7672 12.1324 99.3705 11.8122C99.9813 11.4844 100.436 11.0338 100.734 10.4603C101.039 9.87936 101.192 9.21275 101.192 8.46049C101.192 7.70078 101.039 7.03789 100.734 6.47183C100.436 5.89832 99.9813 5.45516 99.3705 5.14233C98.7598 4.82206 97.9852 4.66193 97.0467 4.66193H93.7844V23.5877H88.9468Z" fill="#FF2338"/>
<path d="M121.436 0.706953V23.5877H116.598V0.706953H121.436Z" fill="#00137C"/>
<path d="M140.808 23.5877H132.697V0.706953H140.875C143.177 0.706953 145.158 1.16502 146.819 2.08114C148.48 2.98981 149.757 4.29697 150.651 6.0026C151.552 7.70823 152.003 9.74902 152.003 12.125C152.003 14.5084 151.552 16.5566 150.651 18.2697C149.757 19.9828 148.473 21.2974 146.797 22.2135C145.128 23.1296 143.132 23.5877 140.808 23.5877ZM137.535 19.4428H140.607C142.037 19.4428 143.24 19.1896 144.216 18.6831C145.199 18.1692 145.936 17.3759 146.428 16.3034C146.927 15.2234 147.177 13.8306 147.177 12.125C147.177 10.4343 146.927 9.05262 146.428 7.98008C145.936 6.90755 145.203 6.11804 144.227 5.61157C143.251 5.10509 142.049 4.85186 140.618 4.85186H137.535V19.4428Z" fill="#198C8B"/>
</svg>
